<svg width="770" height="1038" viewBox="0 0 770 1038" fill="none" xmlns="http://www.w3.org/2000/svg">
<path d="M85 811H125V971H165V771H125C103 771 85 789 85 811Z" fill="black"/>
<path d="M205 971H245V891C245 869 227 851 205 851V971Z" fill="black"/>
<path d="M285 851V971H325V891H365V931C365 953 383 971 405 971V891C405 869 387 851 365 851H285Z" fill="black"/>
<path d="M645 851H605V811C605 789 587 771 565 771V931H485V891H525V851H485C463 851 445 869 445 891V931C445 953 463 971 485 971H605V891H645V931C645 953 663 971 685 971V891C685 869 667 851 645 851Z" fill="black"/>
<path d="M205 811H245C245 789 227 771 205 771V811Z" fill="black"/>
<path d="M147.363 1011V1037.18H143.698L129.301 1019.04V1037.18H125V1011H128.665L143.062 1029.21V1011H147.363Z" fill="black" fill-opacity="0.5"/>
<path d="M228.729 1037.18H213.21V1011H228.355V1015.3H217.81V1021.81H227.234V1026.11H217.81V1032.88H228.729V1037.18Z" fill="black" fill-opacity="0.5"/>
<path d="M303.065 1015.3H294.576V1011H316.154V1015.3H307.665V1037.18H303.065V1015.3Z" fill="black" fill-opacity="0.5"/>
<path d="M414.049 1011H418.462L410.983 1037.18H406.682L400.362 1018.25L394.155 1037.18H389.817L382.001 1011H387.162L392.434 1029.66L398.268 1011H402.831L408.814 1029.7L414.049 1011Z" fill="black" fill-opacity="0.5"/>
<path d="M484.31 1024.5C484.31 1020.69 485.581 1017.48 488.124 1014.89C490.717 1012.3 493.983 1011 497.922 1011C501.861 1011 505.114 1012.25 507.682 1014.74C510.275 1017.26 511.571 1020.51 511.571 1024.5C511.571 1028.41 510.275 1031.64 507.682 1034.19C505.089 1036.73 501.836 1038 497.922 1038C493.983 1038 490.729 1036.75 488.161 1034.26C485.593 1031.77 484.31 1028.51 484.31 1024.5ZM489.171 1024.5C489.171 1027.14 490.006 1029.34 491.677 1031.08C493.347 1032.83 495.429 1033.7 497.922 1033.7C500.614 1033.7 502.746 1032.83 504.316 1031.08C505.912 1029.34 506.71 1027.14 506.71 1024.5C506.71 1021.83 505.862 1019.63 504.167 1017.88C502.472 1016.16 500.39 1015.3 497.922 1015.3C495.404 1015.3 493.31 1016.16 491.639 1017.88C489.994 1019.6 489.171 1021.81 489.171 1024.5Z" fill="black" fill-opacity="0.5"/>
<path d="M582.019 1027.45V1037.25H577.419V1011.07C578.715 1011.07 580.124 1011.06 581.645 1011.04C583.165 1011.01 584.412 1011 585.384 1011C591.717 1011 594.883 1013.69 594.883 1019.08C594.883 1021.07 594.372 1022.72 593.35 1024.01C592.328 1025.26 591.156 1026.11 589.834 1026.56L598.024 1037.25H592.452L585.235 1027.45H582.019ZM585.16 1015.3C585.035 1015.3 584.836 1015.31 584.562 1015.34C584.287 1015.34 583.901 1015.35 583.402 1015.38C582.904 1015.38 582.442 1015.38 582.019 1015.38V1023.15H585.01C586.481 1023.15 587.678 1022.79 588.6 1022.07C589.548 1021.35 590.021 1020.36 590.021 1019.11C590.021 1016.57 588.401 1015.3 585.16 1015.3Z" fill="black" fill-opacity="0.5"/>
<path d="M668.471 1037.18H663.871V1011H668.471V1023.42L678.792 1011H684.327L673.557 1023.19L685 1037.18H679.166L668.471 1023.68V1037.18Z" fill="black" fill-opacity="0.5"/>
<path d="M458.583 157.822C426.701 151.205 391.81 153.01 391.81 153.01C391.81 153.01 380.38 205.947 309.396 219.783C309.998 219.783 403.24 251.666 458.583 157.822Z" fill="black" fill-opacity="0.3"/>
<path d="M487.458 637.87C525.958 607.791 554.833 566.284 568.067 519.362C568.669 517.557 574.083 514.549 577.692 512.143C583.708 508.534 589.724 505.526 590.927 500.713C593.333 486.877 594.536 472.44 594.536 458.002C594.536 452.588 589.122 447.174 583.708 441.76C579.497 438.151 575.286 433.94 575.286 430.932C569.271 376.19 544.005 325.057 503.7 287.76L499.489 291.971C538.591 328.666 563.856 378.596 569.271 431.534C569.872 436.346 574.685 441.159 579.497 445.971C583.708 449.581 588.521 454.995 588.521 457.401C588.521 471.237 587.317 485.073 584.911 498.909C584.31 501.315 578.896 503.721 574.685 506.127C568.669 509.135 563.255 512.143 562.052 516.956C547.614 568.088 514.528 612.604 470.614 641.479C478.435 624.635 503.099 569.893 516.333 542.221L513.927 453.19L437.528 379.198L394.216 385.213L346.692 462.213C346.692 462.213 368.95 490.487 337.669 523.573C306.989 556.057 282.927 563.276 282.927 563.276L260.669 551.245C267.286 542.823 280.521 530.19 290.747 521.768C308.192 507.331 325.638 506.127 325.638 490.487C326.239 458.002 291.349 467.026 291.349 467.026L278.716 479.057L273.302 523.573L246.833 556.659L243.825 556.057L200.513 546.432C200.513 546.432 226.981 532.596 231.192 516.956C235.403 501.916 222.771 451.987 222.169 448.979C222.771 449.581 234.802 459.807 240.216 476.651C249.841 450.182 262.474 424.916 266.083 422.51C269.692 420.104 318.419 394.237 318.419 394.237L302.177 436.948L314.208 430.331L343.083 359.346C343.083 359.346 371.356 345.51 392.411 345.51C430.31 344.909 486.255 298.588 460.989 215.573C468.208 218.581 593.333 281.143 614.989 403.862C631.231 498.307 577.692 586.737 487.458 637.87Z" fill="black" fill-opacity="0.3"/>
<path fill-rule="evenodd" clip-rule="evenodd" d="M566.263 113.909C566.263 113.909 596.341 115.112 627.622 118.722C557.239 63.378 490.466 47.1358 436.325 47.1358C362.264 47.1358 311.923 77.3792 308.264 79.5772L308.193 79.6202L331.653 42.3233C331.653 42.3233 237.81 33.2999 204.724 132.558C196.302 111.503 188.482 80.8233 188.482 80.8233C188.482 80.8233 139.755 123.534 162.614 194.519C106.669 174.066 26.6612 145.792 23.6534 145.191C19.4425 144.589 18.2394 146.394 18.2394 146.394C18.2394 146.394 17.0362 148.198 20.6456 151.206C27.2628 156.62 153.591 249.862 181.263 267.909C175.247 289.566 175.247 299.792 181.263 310.019C189.685 323.855 190.286 331.073 189.083 341.3C187.88 351.526 177.052 439.956 174.646 450.784C173.674 455.155 168.979 464.034 163.803 473.821C156.156 488.282 147.459 504.726 148.177 511.542C149.38 522.972 165.021 571.698 178.857 577.112C189.083 580.722 214.349 588.542 231.193 588.542C237.208 588.542 242.622 587.339 245.028 584.933C255.255 575.909 258.263 574.105 265.482 574.105H267.286C268.664 574.105 270.167 574.231 271.797 574.367L271.798 574.368L271.8 574.368H271.801H271.801H271.802H271.803C273.73 574.529 275.834 574.706 278.114 574.706C287.739 574.706 300.372 572.901 309.396 564.48C315.634 558.241 324.011 550.934 331.88 544.069L331.882 544.067L331.883 544.066L331.885 544.064C340.709 536.367 348.893 529.228 352.708 524.776C361.732 513.347 366.544 497.706 364.138 482.065C362.333 467.628 370.153 454.995 379.177 442.362C390.607 427.323 411.661 400.253 411.661 400.253C453.169 431.534 479.036 479.058 479.036 531.995C479.036 625.839 397.224 701.636 296.161 701.636C280.521 701.636 265.482 699.831 250.443 696.222C296.763 712.464 335.864 717.878 367.747 717.878C435.724 717.878 471.818 693.214 471.818 693.214C471.818 693.214 459.185 709.456 438.732 728.104H439.333C551.825 712.464 606.568 619.823 606.568 619.823C606.568 619.823 602.357 649.901 596.942 670.355C742.919 560.725 722.639 424.244 720.955 412.913L720.953 412.9C720.91 412.611 720.879 412.405 720.864 412.284C721.609 413.401 727.65 420.735 734 428.445L734.005 428.451L734.024 428.474L734.052 428.508C737.949 433.24 741.958 438.107 744.927 441.761C768.989 193.917 566.263 113.909 566.263 113.909ZM321.336 523.543L321.334 523.545L321.333 523.546L321.296 523.58C319.464 525.24 317.66 526.876 316.013 528.386C313.504 530.686 310.923 532.985 308.37 535.26C303.576 539.53 298.883 543.711 294.958 547.636C292.552 550.042 287.739 551.245 280.521 551.245H273.903H270.294H267.888H262.474C271.497 539.214 297.966 511.542 306.989 505.526C317.818 498.308 323.232 491.089 316.614 478.456C309.997 465.823 292.552 468.831 292.552 468.831C292.552 468.831 302.778 464.62 311.802 464.62C300.372 461.612 285.935 464.62 279.318 471.237C274.505 475.649 273.436 487.546 272.366 499.444V499.444C271.831 505.393 271.297 511.342 270.294 516.355C267.601 530.361 259.118 538.096 246.142 549.928L246.132 549.937C244.621 551.315 243.049 552.748 241.419 554.253C232.997 562.073 226.982 564.48 222.169 564.48C211.943 562.675 199.911 559.667 191.489 556.659C185.474 548.839 176.45 522.972 174.044 512.144C175.343 507.815 179.445 500.058 182.989 493.359L182.989 493.358C184.37 490.749 185.665 488.3 186.677 486.276L187.35 484.986L187.679 484.356C194.287 471.703 198.163 464.279 199.31 457.401C201.716 447.175 209.536 384.011 212.544 357.542C220.364 367.769 231.193 384.612 228.786 395.441C246.232 370.776 233.599 346.714 227.583 337.089C222.169 327.464 214.95 308.214 220.966 287.761C226.982 267.308 248.638 210.761 248.638 210.761C248.638 210.761 255.857 223.394 266.083 220.987C276.31 218.581 358.724 94.6593 358.724 94.6593C358.724 94.6593 380.982 143.386 357.521 178.878C333.458 214.37 309.997 220.987 309.997 220.987C309.997 220.987 343.083 227.003 373.763 204.745C386.396 234.222 398.427 264.901 399.028 269.112C398.723 269.824 397.782 272.068 396.416 275.321C389.705 291.307 372.754 331.684 370.755 334.683C369.552 335.886 361.13 338.292 355.114 339.495C344.888 342.503 338.872 344.308 336.466 346.112C332.255 349.722 313.005 402.659 303.982 428.526C293.153 431.534 282.325 437.55 274.505 449.581C278.716 446.573 291.95 444.769 301.575 443.565C309.997 442.964 335.864 456.8 342.482 482.667V483.87C343.685 493.495 340.677 502.519 335.864 509.737C334.011 512.054 327.521 517.937 321.337 523.543L321.336 523.543ZM279.318 516.956C283.578 510.802 284.113 501.295 284.441 495.471C284.53 493.894 284.603 492.588 284.732 491.69C285.333 487.48 286.536 479.659 291.349 478.456C296.161 477.253 307.591 479.058 307.591 487.48C307.591 492.865 303.597 495.397 299.146 498.22C297.133 499.497 295.027 500.833 293.153 502.519C290.411 505.261 285.883 510.044 282.726 513.379L282.721 513.384L282.719 513.386C281.032 515.169 279.737 516.537 279.318 516.956ZM519.341 402.058C525.357 371.378 525.958 344.909 524.153 323.253C547.614 354.534 562.052 392.433 566.263 431.534C566.864 436.347 571.677 441.159 576.489 445.972C580.7 449.581 585.513 454.394 585.513 457.401C585.513 471.237 584.31 485.073 581.903 498.909C581.333 500.62 576.438 503.412 572.343 505.748L572.301 505.772L571.96 505.966L571.677 506.128C565.661 509.136 560.247 512.144 559.044 516.956C545.81 563.276 517.536 604.183 479.638 633.058C535.583 574.706 562.653 478.456 519.341 402.058ZM481.442 638.472C520.544 608.394 550.622 566.284 563.857 518.761C564.322 517.365 567.664 515.251 570.824 513.251C571.751 512.665 572.663 512.088 573.482 511.542C579.497 508.534 585.513 504.925 586.716 500.112C589.122 486.276 590.325 471.839 590.325 457.401C590.325 451.987 584.911 446.573 579.497 441.159C578.738 440.249 577.865 439.3 576.982 438.341L576.981 438.34C574.367 435.501 571.677 432.58 571.677 430.331C566.864 386.417 549.419 344.909 522.349 310.62C510.512 239.599 463.738 216.907 461.084 215.62C461.04 215.598 461.009 215.583 460.989 215.573C461.007 215.6 461.032 215.637 461.063 215.683C463.118 218.731 493.149 263.288 471.818 315.433C451.924 363.284 404.16 361.64 390.8 361.18H390.799H390.799H390.799H390.798H390.798C389.211 361.125 388.11 361.088 387.599 361.151C382.786 361.151 364.138 385.214 340.677 429.73C337.669 428.526 325.036 425.519 310.599 427.925C321.427 397.847 337.669 355.136 340.677 351.526C341.636 350.568 347.56 348.845 352.971 347.272C354.35 346.871 355.697 346.479 356.919 346.112C368.349 343.105 373.763 341.3 375.568 338.894C376.771 337.089 382.786 323.253 388.802 308.816C394.216 308.816 408.052 307.612 409.255 307.011C410.458 305.808 421.888 276.331 421.888 272.722C421.888 269.714 398.427 211.362 389.403 189.105C393.614 184.292 397.825 178.276 402.036 171.659C525.357 184.894 621.607 289.566 621.607 416.495C621.607 513.948 564.458 598.769 481.442 638.472ZM352.709 130.752C352.709 130.752 358.123 154.815 344.287 171.057C326.841 190.909 311.802 190.307 312.404 190.307L352.709 130.752ZM213.747 472.441L208.935 496.504C208.935 496.504 218.56 495.301 218.56 506.129C218.56 514.551 208.935 525.98 201.115 526.582C193.294 527.183 190.286 517.558 192.091 512.144C193.896 507.332 213.747 472.441 213.747 472.441ZM305.786 271.518C326.841 275.729 332.857 300.393 321.427 313.628C309.997 326.261 281.122 344.307 264.279 348.518C260.669 362.354 229.989 356.339 241.419 312.425C241.419 312.425 246.833 333.479 252.247 331.675C257.661 329.87 319.021 233.62 319.021 233.62C319.021 233.62 311.2 258.886 305.786 271.518ZM300.372 283.551L269.091 337.09C269.091 337.09 297.966 323.855 309.396 307.012C318.419 292.574 300.372 283.551 300.372 283.551ZM296.161 63.3784C242.021 95.8628 252.849 173.464 252.849 173.464C203.461 98.2341 284.003 67.9586 295.075 63.7968L295.076 63.7965C295.601 63.5989 295.97 63.4602 296.161 63.3784ZM558.442 95.2621C468.81 78.4183 411.06 86.8402 369.552 102.481C368.349 97.6683 364.138 88.0433 360.528 80.223C348.363 94.7058 335.639 111.978 327.193 123.444L326.239 124.739C303.38 140.379 293.755 155.418 293.755 155.418C306.989 110.301 345.489 76.6136 392.411 68.1918C405.646 65.7855 420.083 64.5824 435.724 64.5824C477.232 65.1839 518.739 75.4105 558.442 95.2621ZM577.692 202.339C662.513 258.284 701.013 320.245 728.083 393.034C726.88 316.034 701.013 249.862 651.083 196.925L649.88 195.721C605.966 149.401 541.599 127.745 477.833 136.768C453.771 139.776 429.708 144.589 411.06 150.604C408.052 151.206 405.044 151.807 402.036 153.011H403.239C408.052 152.409 495.88 148.198 577.692 202.339ZM624.614 621.628C636.646 609.597 646.872 596.964 655.896 584.933C707.63 512.745 700.411 413.487 640.857 347.315C636.044 341.901 630.63 335.886 625.216 330.472C628.224 335.886 702.216 472.44 624.614 621.628ZM181.114 122.306C178.831 131.02 158.551 208.423 226.982 210.762C186.076 186.098 181.263 122.332 181.263 121.731C181.23 121.864 181.18 122.055 181.115 122.302L181.114 122.306ZM210.138 248.659C214.349 240.839 210.739 235.425 207.13 232.417L205.927 231.214C198.708 227.605 153.591 210.761 109.075 195.12C148.177 220.987 191.489 246.253 198.708 249.862C204.122 252.269 207.732 252.87 210.138 248.659Z" fill="black"/>
</svg>
