<svg width="1070" height="420" viewBox="0 0 1070 420" fill="none" xmlns="http://www.w3.org/2000/svg">
<path d="M470 116H510V276H550V76H510C488 76 470 94 470 116Z" fill="white"/>
<path d="M590 276H630V196C630 174 612 156 590 156V276Z" fill="white"/>
<path d="M670 156V276H710V196H750V236C750 258 768 276 790 276V196C790 174 772 156 750 156H670Z" fill="white"/>
<path d="M1030 156H990V116C990 94 972 76 950 76V236H870V196H910V156H870C848 156 830 174 830 196V236C830 258 848 276 870 276H990V196H1030V236C1030 258 1048 276 1070 276V196C1070 174 1052 156 1030 156Z" fill="white"/>
<path d="M590 116H630C630 94 612 76 590 76V116Z" fill="white"/>
<path d="M532.363 316V342.177H528.698L514.301 324.04V342.177H510V316H513.665L528.062 334.212V316H532.363Z" fill="white" fill-opacity="0.7"/>
<path d="M613.729 342.177H598.21V316H613.355V320.301H602.81V326.807H612.234V331.108H602.81V337.877H613.729V342.177Z" fill="white" fill-opacity="0.7"/>
<path d="M688.066 320.301H679.577V316H701.154V320.301H692.665V342.177H688.066V320.301Z" fill="white" fill-opacity="0.7"/>
<path d="M799.05 316H803.463L795.983 342.177H791.683L785.363 323.255L779.155 342.177H774.817L767.001 316H772.162L777.435 334.661L783.269 316H787.831L793.814 334.698L799.05 316Z" fill="white" fill-opacity="0.7"/>
<path d="M869.31 329.5C869.31 325.686 870.581 322.482 873.124 319.889C875.717 317.296 878.983 316 882.922 316C886.861 316 890.114 317.247 892.682 319.74C895.275 322.258 896.571 325.511 896.571 329.5C896.571 333.414 895.275 336.643 892.682 339.186C890.089 341.729 886.836 343 882.922 343C878.983 343 875.729 341.753 873.161 339.26C870.593 336.767 869.31 333.514 869.31 329.5ZM874.171 329.5C874.171 332.143 875.006 334.337 876.677 336.082C878.347 337.827 880.429 338.699 882.922 338.699C885.614 338.699 887.746 337.827 889.316 336.082C890.912 334.337 891.71 332.143 891.71 329.5C891.71 326.832 890.862 324.626 889.167 322.881C887.472 321.161 885.39 320.301 882.922 320.301C880.404 320.301 878.31 321.161 876.639 322.881C874.994 324.601 874.171 326.807 874.171 329.5Z" fill="white" fill-opacity="0.7"/>
<path d="M967.019 332.454V342.252H962.419V316.075C963.715 316.075 965.124 316.062 966.645 316.037C968.165 316.012 969.412 316 970.384 316C976.717 316 979.883 318.693 979.883 324.078C979.883 326.072 979.372 327.717 978.35 329.014C977.328 330.26 976.156 331.108 974.834 331.557L983.024 342.252H977.452L970.235 332.454H967.019ZM970.16 320.301C970.035 320.301 969.836 320.313 969.562 320.338C969.287 320.338 968.901 320.35 968.402 320.375C967.904 320.375 967.442 320.375 967.019 320.375V328.154H970.01C971.481 328.154 972.678 327.792 973.6 327.069C974.548 326.346 975.021 325.361 975.021 324.115C975.021 321.572 973.401 320.301 970.16 320.301Z" fill="white" fill-opacity="0.7"/>
<path d="M1053.47 342.177H1048.87V316H1053.47V328.416L1063.79 316H1069.33L1058.56 328.191L1070 342.177H1064.17L1053.47 328.677V342.177Z" fill="white" fill-opacity="0.7"/>
<g clip-path="url(#clip0)">
<path fill-rule="evenodd" clip-rule="evenodd" d="M329.897 73.553C317.617 65.584 308.871 62.1324 308.871 62.1324C308.871 62.1324 314.613 62.362 322.836 62.9573C325.995 63.186 329.52 63.4686 333.226 63.8129C336.18 64.0872 339.249 64.4008 342.339 64.7574C336.902 60.4814 331.503 56.6333 326.158 53.1778C293.769 32.2378 263.344 25.7105 237.996 25.7105C215.626 25.7105 197.223 30.769 184.915 35.4872C174.996 39.2895 169.035 42.8708 168.144 43.4058L168.105 43.4292L180.902 23.0855L181.859 13.1314C185.312 13.4635 188.347 15.5617 189.877 18.6754C190.526 19.9953 190.864 21.4177 190.899 22.8423C203.333 18.9907 219.381 15.7105 237.996 15.7105C269.696 15.7105 308.311 25.2787 348.521 56.8965C352.038 59.6622 353.29 64.4276 351.586 68.5649C350.696 70.7268 349.112 72.4423 347.168 73.5143C354.41 79.0596 362.181 85.8483 369.823 94.021C397.523 123.644 423.153 171.109 416.277 241.927C415.885 245.964 413.093 249.364 409.21 250.535C407.433 251.071 405.589 251.091 403.866 250.654C401.623 280.926 388.425 330.976 331.61 373.644C328.204 376.202 323.552 376.322 320.019 373.942C318.588 372.978 317.468 371.69 316.714 370.225C316.142 370.759 315.56 371.294 314.966 371.831C298.81 386.455 274.224 402.435 241.013 407.053C240.557 407.116 240.097 407.148 239.636 407.148H239.308C235.179 407.148 231.475 404.611 229.984 400.761C229.738 400.126 229.56 399.477 229.449 398.823C221.254 400.453 211.615 401.57 200.589 401.57C182.035 401.57 159.59 398.414 133.296 389.194C128.271 387.432 125.508 382.041 127.012 376.932C128.517 371.824 133.761 368.791 138.939 370.033C146.384 371.82 153.804 372.71 161.543 372.71C211.869 372.71 251.293 335.146 251.293 290.179C251.293 268.014 241.892 247.684 226.061 232.679C226.017 232.735 225.973 232.792 225.929 232.848C222.315 237.518 217.96 243.164 214.876 247.22C209.886 254.222 208.136 258.094 208.531 261.601C210.233 273.008 206.718 284.226 200.235 292.438C200.152 292.544 200.066 292.648 199.979 292.75C197.413 295.743 192.536 299.996 188.191 303.784C187.993 303.957 187.796 304.129 187.599 304.3C183.225 308.117 178.943 311.858 175.832 314.969C175.751 315.05 175.668 315.13 175.584 315.209C167.836 322.44 157.724 323.476 151.699 323.476C150.03 323.476 148.529 323.35 147.513 323.264L147.458 323.26C147.444 323.259 147.43 323.258 147.416 323.256C146.42 323.173 146.043 323.148 145.793 323.148H144.808C144.643 323.148 144.518 323.151 144.426 323.155C144.239 323.272 143.906 323.5 143.368 323.922C142.634 324.498 141.707 325.285 140.421 326.418C137.96 328.728 135.013 329.739 133.042 330.232C130.755 330.804 128.353 331.023 126.105 331.023C120.266 331.023 113.572 329.715 108.07 328.35C102.411 326.946 97.2596 325.288 94.23 324.219C94.1241 324.181 94.0188 324.142 93.9142 324.101C91.0311 322.973 88.873 321.068 87.4007 319.496C85.8529 317.843 84.5107 315.959 83.3638 314.118C81.0706 310.436 79.029 306.062 77.3391 301.892C74.0778 293.845 71.3558 284.602 70.8787 280.07C70.5621 277.061 71.2956 274.208 71.8412 272.424C72.4691 270.371 73.3422 268.229 74.252 266.203C76.0431 262.214 78.3954 257.766 80.421 253.936L80.5073 253.773C81.9427 251.058 83.2021 248.674 84.1732 246.68C84.6548 245.691 85.0136 244.902 85.2616 244.299C85.4337 243.88 85.5033 243.668 85.5194 243.621C86.0685 241.027 87.7783 228.319 89.5254 214.634C91.2453 201.161 92.8816 187.742 93.2048 184.995C93.4759 182.691 93.436 181.572 93.2032 180.508C92.951 179.354 92.3026 177.543 90.3287 174.301C90.3097 174.269 90.2908 174.238 90.2721 174.207C90.2652 174.195 90.2582 174.183 90.2513 174.171C85.8805 166.741 85.6603 159.435 87.5005 150.497C65.1745 134.989 8.43997 93.0884 4.92892 90.2157C4.90568 90.1967 4.88252 90.1776 4.85945 90.1583C2.78208 88.4272 0.669141 85.8632 0.0280672 82.3372C-0.289618 80.59 -0.173781 78.9424 0.200846 77.5063C0.383237 76.8072 0.618468 76.1893 0.867537 75.6572C0.992047 75.3912 1.12042 75.1458 1.24823 74.9209C1.31217 74.8084 1.37612 74.7008 1.43957 74.5981C1.4713 74.5468 1.50293 74.4966 1.5344 74.4476C1.55013 74.4231 1.56582 74.3989 1.58147 74.375L1.60491 74.3393L1.61661 74.3217C1.62244 74.3129 1.62829 74.3041 9.9488 79.8511C9.9488 79.8511 9.29255 80.8355 11.2613 82.4761C11.4209 82.6067 11.7081 82.8309 12.1127 83.1411C12.1774 83.1907 12.2452 83.2426 12.316 83.2966C13.3301 84.0712 14.9537 85.2921 17.0622 86.8664C19.908 88.9911 23.6371 91.7595 27.9437 94.9432C50.2799 111.456 88.1498 139.14 98.8707 146.132C95.5894 157.945 95.5894 163.523 98.8707 169.101C103.464 176.648 103.793 180.585 103.136 186.164C102.48 191.742 96.5738 239.976 95.2613 245.882C94.7315 248.266 92.1704 253.109 89.3472 258.448C85.1759 266.335 80.4324 275.305 80.8238 279.023C81.48 285.257 90.0113 311.835 97.5582 314.789C103.136 316.757 116.918 321.023 126.105 321.023C129.386 321.023 132.339 320.367 133.652 319.054C139.23 314.132 140.871 313.148 144.808 313.148H145.793C146.544 313.148 147.364 313.217 148.252 313.291H148.253C149.306 313.38 150.454 313.476 151.699 313.476C156.949 313.476 163.839 312.492 168.761 307.898C172.164 304.495 176.733 300.509 181.026 296.765C185.839 292.566 190.305 288.67 192.386 286.242C197.308 280.007 199.933 271.476 198.621 262.945C197.636 255.07 201.902 248.179 206.824 241.289C213.058 233.085 224.543 218.32 224.543 218.32C225.343 218.923 226.132 219.537 226.91 220.162C228.74 221.63 230.51 223.158 232.216 224.743C250.326 241.561 261.293 264.723 261.293 290.179C261.293 334.492 227.849 371.428 183.101 380.55C176.159 381.965 168.946 382.71 161.543 382.71C153.011 382.71 144.808 381.726 136.605 379.757C145.394 382.839 153.707 385.206 161.543 386.983C169.331 388.749 176.649 389.932 183.496 390.653C189.563 391.293 195.261 391.57 200.589 391.57C214.751 391.57 226.375 389.607 235.335 387.182C249.834 383.256 257.355 378.117 257.355 378.117C257.355 378.117 255.411 380.617 251.916 384.485C249.049 387.658 245.139 391.752 240.402 396.142C240.149 396.377 239.894 396.612 239.636 396.848C239.624 396.859 239.612 396.871 239.599 396.882C239.503 396.971 239.406 397.059 239.308 397.148H239.636C245.867 396.282 251.773 394.982 257.355 393.347C285.849 384.999 305.927 367.894 317.817 354.913C326.539 345.39 330.855 338.085 330.855 338.085C330.855 338.085 330.095 343.516 328.887 350.253C328.352 353.233 327.73 356.468 327.048 359.602C326.591 361.698 326.108 363.749 325.605 365.648C330.038 362.319 334.19 358.944 338.079 355.538C386.144 313.438 393.913 266.586 394.256 242.011C394.272 240.884 394.272 239.803 394.26 238.771C394.26 238.766 394.259 238.761 394.259 238.756C394.259 238.756 394.259 238.755 394.259 238.754C394.259 238.754 394.259 238.753 394.259 238.752C394.259 238.75 394.259 238.749 394.259 238.747C394.259 238.742 394.259 238.736 394.259 238.731C394.259 238.731 394.259 238.73 394.259 238.73C394.259 238.729 394.259 238.728 394.259 238.727C394.259 238.709 394.259 238.692 394.258 238.675C394.258 238.674 394.258 238.674 394.258 238.673C394.165 231.398 393.453 226.607 393.248 225.225L393.222 225.049C393.212 224.977 393.204 224.922 393.199 224.882C393.224 224.921 393.261 224.972 393.309 225.036C393.344 225.084 393.385 225.138 393.431 225.198C393.999 225.94 395.396 227.655 397.13 229.768C398.128 230.983 399.237 232.33 400.364 233.698L400.365 233.699L400.366 233.7L400.367 233.701L400.379 233.716C401.694 235.312 403.032 236.937 404.246 238.417C404.998 239.334 405.703 240.196 406.324 240.96C406.749 236.583 407.044 232.302 407.218 228.116C407.218 228.115 407.218 228.114 407.218 228.114C407.218 228.103 407.219 228.093 407.219 228.082C407.219 228.077 407.219 228.071 407.22 228.065C407.22 228.063 407.22 228.06 407.22 228.058C407.22 228.057 407.22 228.057 407.22 228.056C407.22 228.054 407.22 228.053 407.22 228.051C407.22 228.047 407.221 228.043 407.221 228.039C407.221 228.035 407.221 228.031 407.221 228.027C407.221 228.027 407.221 228.026 407.221 228.025C407.244 227.471 407.265 226.919 407.283 226.369C410.226 138.75 359.672 92.8742 329.897 73.553ZM105.97 55.4316C106.205 56.2228 106.45 57.0358 106.703 57.8636C108.156 62.6124 109.887 67.8527 111.668 72.3042C113.337 67.2957 115.29 62.7926 117.46 58.7443C131.521 32.5138 154.685 25.3774 168.793 23.555C176.044 22.6183 180.902 23.0855 180.902 23.0855C181.859 13.1314 181.854 13.1309 181.848 13.1303L181.836 13.1292L181.807 13.1265L181.737 13.1202C181.708 13.1177 181.676 13.115 181.64 13.112C181.609 13.1094 181.575 13.1067 181.539 13.1038C181.382 13.0915 181.176 13.0767 180.923 13.0615C180.419 13.0311 179.727 12.999 178.868 12.9818C177.154 12.9473 174.762 12.9718 171.867 13.1909C166.101 13.6273 158.192 14.8466 149.6 18.007C137.37 22.5059 124.017 30.8718 113.631 45.8532C113.473 45.2783 113.329 44.7497 113.201 44.2749C112.973 43.4273 112.794 42.7533 112.675 42.2954C112.615 42.0665 112.569 41.8918 112.54 41.7767L112.507 41.6494L112.498 41.6155C111.639 38.2463 109.091 35.5644 105.771 34.5344C102.449 33.5042 98.8315 34.2734 96.2166 36.5655L102.808 44.0855C96.2166 36.5655 96.2126 36.569 96.2085 36.5726L96.1998 36.5802L96.1805 36.5972L96.1348 36.6378C96.101 36.6679 96.0608 36.704 96.0145 36.746C95.9218 36.8301 95.8044 36.938 95.6644 37.0696C95.3845 37.3326 95.0135 37.6908 94.5684 38.1425C93.6791 39.0448 92.4873 40.3265 91.1309 41.9735C88.4269 45.257 85.0126 50.0605 82.0517 56.269C77.82 65.1419 74.5722 76.7962 75.5413 90.6865C64.5397 86.7168 53.1434 82.6458 43.3126 79.1618C35.8373 76.5126 29.2528 74.1977 24.4262 72.5218C22.0163 71.6851 20.0238 71.0003 18.5702 70.5107C17.8477 70.2674 17.2262 70.0614 16.7401 69.9056C16.727 69.9014 16.7105 69.8961 16.6907 69.8897C16.4283 69.8048 15.5965 69.5357 14.8631 69.3891C14.6817 69.3528 14.4993 69.3215 14.3161 69.2954C11.6067 68.9083 8.89275 69.175 6.42602 70.2963C5.22883 70.8404 4.22987 71.5248 3.41929 72.25C3.01852 72.6086 2.67256 72.9692 2.37585 73.3168C2.22761 73.4905 2.09177 73.6607 1.96753 73.8258C1.9054 73.9083 1.84614 73.9896 1.78965 74.0693C1.7614 74.1092 1.73385 74.1487 1.70696 74.1879L1.66713 74.2463L1.6476 74.2753L1.63792 74.2897C1.63311 74.2969 1.6283 74.3041 9.9488 79.8511C9.9488 79.8511 10.605 78.8667 12.9019 79.1949C13.0087 79.2162 13.2935 79.3015 13.7409 79.4454C13.7529 79.4493 13.765 79.4532 13.7771 79.4571C14.8861 79.8146 16.9543 80.5176 19.7636 81.4894C23.1308 82.6542 27.5625 84.2053 32.6827 86.0105C45.2317 90.4348 61.916 96.3856 77.1988 101.919C81.1583 103.352 85.0237 104.758 88.6988 106.101C87.3951 102.053 86.5183 98.1733 85.9933 94.4713C83.3863 76.0869 89.456 62.082 95.0168 53.5589C99.0461 47.3831 102.808 44.0855 102.808 44.0855C102.808 44.0855 104.074 49.0526 105.97 55.4316ZM10.2938 88.8449C10.2935 88.8448 10.3005 88.8468 10.3154 88.8512C10.3016 88.8473 10.2941 88.845 10.2938 88.8449Z" fill="white"/>
<path d="M183.199 278.039C182.188 279.302 178.647 282.513 175.273 285.57C174.267 286.483 173.275 287.381 172.371 288.211C171.003 289.465 169.595 290.719 168.203 291.959L168.202 291.96C165.587 294.289 163.027 296.57 160.886 298.711C159.574 300.023 156.949 300.679 153.011 300.679H143.167C145.141 298.049 148.643 294.047 152.449 289.984C154.547 288.042 156.666 286.185 158.589 284.601C161.954 281.817 165.318 279.935 168.262 278.288C173.644 275.278 177.621 273.053 177.621 267.538C177.828 256.356 170.325 254.191 164.76 254.116C166.42 253.731 168.29 253.429 170.074 253.429C163.839 251.789 155.964 253.429 152.355 257.039C149.73 259.445 149.147 265.935 148.563 272.424C148.272 275.669 147.98 278.914 147.433 281.648C145.964 289.288 141.337 293.507 134.259 299.961L134.249 299.97L134.228 299.989C133.412 300.734 132.563 301.508 131.683 302.32C131.477 302.512 131.273 302.697 131.072 302.877L109.371 298.054C109.371 298.054 123.808 290.507 126.105 281.976C128.162 274.629 122.849 252.015 121.482 246.197C121.323 245.519 121.217 245.069 121.183 244.898C121.203 244.918 121.247 244.958 121.312 245.018C122.306 245.927 128.256 251.37 131.027 259.992C136.277 245.554 143.167 231.773 145.136 230.46C146.828 229.333 166.686 218.758 172.245 215.802C169.815 222.398 167.487 228.929 165.808 233.742C159.902 235.383 153.996 238.664 149.73 245.226C152.027 243.586 159.246 242.601 164.496 241.945C169.089 241.617 183.199 249.164 186.808 263.273V263.929C187.464 269.179 185.824 274.101 183.199 278.039Z" fill="white" fill-opacity="0.7"/>
<path d="M172.058 233.075C178.791 232.461 184.37 233.817 185.824 234.398C198.621 210.117 208.793 196.992 211.418 196.992C211.696 196.957 212.297 196.978 213.164 197.008C220.451 197.258 246.504 198.155 257.355 172.054C268.991 143.612 252.61 119.308 251.489 117.646L251.449 117.586C265.23 162.867 234.714 188.132 214.042 188.46C202.558 188.46 187.136 196.007 187.136 196.007L172.058 233.075Z" fill="white" fill-opacity="0.7"/>
<path d="M251.449 117.586C251.46 117.591 251.477 117.599 251.5 117.611C252.918 118.299 277.432 130.191 284.5 167.096C300.805 186.125 311.027 209.89 313.792 235.054C313.792 236.695 316.089 238.992 318.386 240.96C321.339 243.913 324.292 246.867 324.292 249.82C324.292 257.695 323.636 265.57 322.324 273.117C321.743 275.44 319.105 276.992 316.231 278.684L315.954 278.847C315.842 278.913 315.731 278.979 315.619 279.045C315.448 279.146 315.276 279.248 315.105 279.351C314.659 279.648 314.162 279.963 313.657 280.282L313.656 280.283C311.932 281.374 310.109 282.527 309.855 283.288C303.174 306.974 289.188 328.13 270.495 344.156C301.352 326.792 324.618 297.6 334.226 262.884C337.414 249.207 337.958 234.879 335.449 220.288C323.636 153.351 255.386 119.227 251.449 117.586Z" fill="white" fill-opacity="0.7"/>
<path d="M172.596 120.885C178.655 121.191 191.615 120.571 203.871 111.679C205.116 114.586 206.351 117.513 207.54 120.373C192.466 124.417 178.95 122.333 172.596 120.885Z" fill="white" fill-opacity="0.7"/>
<path d="M217.844 116.656C226.009 112.898 234.259 107.016 241.772 98.0203C234.51 95.941 226.998 94.4595 219.292 93.6326C216.996 97.2419 214.699 100.523 212.402 103.148C213.761 106.5 215.72 111.352 217.844 116.656Z" fill="white" fill-opacity="0.7"/>
<path d="M283.277 219.304C286.558 202.57 286.886 188.133 285.902 176.32C298.699 193.383 306.574 214.054 308.871 235.383C309.199 238.008 311.824 240.633 314.449 243.258C316.746 245.226 319.371 247.851 319.371 249.492C319.371 257.039 318.714 264.586 317.402 272.133C317.091 273.066 314.421 274.588 312.188 275.862L311.824 276.07C308.542 277.711 305.589 279.351 304.933 281.976C297.714 307.242 282.292 329.554 261.621 345.304C292.136 313.476 306.902 260.976 283.277 219.304Z" fill="white" fill-opacity="0.7"/>
<path fill-rule="evenodd" clip-rule="evenodd" d="M137.917 94.6172C137.917 94.6172 132.011 52.2891 161.542 34.5703C161.438 34.6149 161.237 34.6905 160.951 34.7982C154.912 37.0683 110.979 53.5825 137.917 94.6172ZM201.574 55.8989C224.214 47.3677 255.714 42.7739 304.605 51.9614C282.949 41.1333 260.308 35.5552 237.667 35.227C229.136 35.227 221.261 35.8833 214.042 37.1958C188.449 41.7895 167.449 60.1645 160.23 84.7739C160.23 84.7739 165.48 76.5708 177.949 68.0395L178.469 67.3332C183.076 61.0793 190.016 51.658 196.652 43.7583C198.62 48.0239 200.917 53.2739 201.574 55.8989ZM315.105 110.367C361.37 140.882 382.37 174.679 397.136 214.382C396.48 172.382 382.37 136.289 355.136 107.414L354.48 106.757C330.527 81.4918 295.417 69.6793 260.636 74.6012C247.511 76.2418 234.386 78.8668 224.214 82.1481C222.574 82.4762 220.933 82.8043 219.292 83.4606H219.949C222.574 83.1325 270.48 80.8356 315.105 110.367ZM357.761 319.054C352.839 325.617 347.261 332.508 340.699 339.07C383.027 257.695 342.667 183.211 341.027 180.258C343.98 183.211 346.933 186.492 349.558 189.445C382.042 225.539 385.98 279.679 357.761 319.054ZM98.7893 66.7124C97.5439 71.4658 86.4821 113.685 123.808 114.961C101.496 101.508 98.8706 66.727 98.8706 66.3989L98.8524 66.4703L98.8308 66.5539L98.7893 66.7124ZM163.839 154.665L146.777 183.868C146.777 183.868 162.527 176.649 168.761 167.461C173.683 159.586 163.839 154.665 163.839 154.665ZM152.449 289.984C154.547 288.042 156.666 286.185 158.589 284.601C161.953 281.817 165.318 279.935 168.262 278.288C173.644 275.278 177.62 273.053 177.62 267.539C177.827 256.357 170.324 254.192 164.76 254.116C164.846 254.096 164.932 254.077 165.018 254.057C161.976 254.737 159.573 255.727 159.573 255.727C159.573 255.727 169.089 254.086 172.698 260.977C176.308 267.867 173.355 271.805 167.449 275.742C164.5 277.708 158.136 283.914 152.449 289.984ZM183.527 188.789C182.013 190.086 176.939 203.064 172.245 215.803C166.686 218.758 146.828 229.333 145.136 230.461C143.167 231.773 136.277 245.554 131.027 259.992C128.255 251.37 122.306 245.927 121.312 245.018C121.247 244.958 121.203 244.918 121.183 244.898C121.217 245.069 121.323 245.519 121.482 246.197C122.849 252.015 128.162 274.629 126.105 281.976C123.808 290.507 109.37 298.054 109.37 298.054L131.072 302.877C126.796 306.701 123.69 307.898 121.183 307.898C115.605 306.914 109.042 305.273 104.448 303.633C101.167 299.367 96.2454 285.258 94.9329 279.352C95.6411 276.991 97.8783 272.761 99.8109 269.107L99.8113 269.107L99.8119 269.106L99.8125 269.104L99.8141 269.101C100.566 267.679 101.272 266.345 101.823 265.242L102.37 264.194C105.974 257.293 108.089 253.244 108.714 249.492C110.027 243.914 114.292 209.461 115.933 195.023C120.198 200.602 126.105 209.789 124.792 215.695C134.308 202.242 127.417 189.117 124.136 183.867C121.183 178.617 117.245 168.117 120.527 156.961C123.808 145.805 135.62 114.961 135.62 114.961C135.62 114.961 139.558 121.852 145.136 120.539C150.714 119.227 195.667 51.6328 195.667 51.6328C195.667 51.6328 207.808 78.2109 195.011 97.5703C181.886 116.93 169.089 120.539 169.089 120.539C169.089 120.539 170.382 120.774 172.595 120.886C178.95 122.333 192.466 124.417 207.54 120.373C212.93 133.336 217.383 144.907 217.652 146.789C217.485 147.177 216.973 148.397 216.23 150.166L216.227 150.176L216.225 150.179L216.224 150.182L216.223 150.185C212.559 158.911 203.32 180.919 202.23 182.555C201.573 183.211 196.98 184.523 193.699 185.18C188.12 186.82 184.839 187.805 183.527 188.789ZM192.386 71.3199C192.386 71.3199 195.339 84.4449 187.792 93.3043C178.277 104.132 170.074 103.804 170.402 103.804L192.386 71.3199ZM116.589 257.696L113.964 270.821C113.964 270.821 119.214 270.164 119.214 276.071C119.214 280.664 113.964 286.899 109.699 287.227C105.433 287.555 103.792 282.305 104.777 279.352C105.761 276.727 116.589 257.696 116.589 257.696ZM166.792 148.101C178.277 150.398 181.558 163.851 175.324 171.07C169.089 177.961 153.339 187.805 144.152 190.101C142.183 197.648 125.449 194.367 131.683 170.414C131.683 170.414 134.636 181.898 137.589 180.914C140.542 179.93 174.011 127.43 174.011 127.43C174.011 127.43 169.745 141.211 166.792 148.101ZM155.149 270.257C154.971 273.434 154.679 278.62 152.355 281.977C152.583 281.748 153.29 281.002 154.21 280.029L154.212 280.028C155.934 278.209 158.405 275.598 159.902 274.102C160.923 273.182 162.072 272.453 163.17 271.757C165.598 270.217 167.777 268.836 167.777 265.898C167.777 261.305 161.542 260.32 158.917 260.977C156.292 261.633 155.636 265.898 155.308 268.195C155.238 268.685 155.198 269.397 155.149 270.257ZM307.558 282.961C300.339 308.883 283.933 331.852 262.605 348.258C265.285 346.976 267.916 345.608 270.495 344.157C289.187 328.13 303.174 306.974 309.855 283.289C310.108 282.528 311.931 281.374 313.655 280.283L313.657 280.282C314.162 279.963 314.659 279.648 315.105 279.351C315.205 279.291 315.306 279.231 315.407 279.171L315.619 279.045C315.731 278.979 315.842 278.913 315.954 278.847L316.231 278.684C319.105 276.993 321.743 275.44 322.323 273.117C323.636 265.57 324.292 257.695 324.292 249.82C324.292 246.867 321.339 243.914 318.386 240.961C316.089 238.992 313.792 236.695 313.792 235.054C311.027 209.891 300.805 186.125 284.5 167.097C284.647 167.864 284.786 168.641 284.917 169.43C299.683 188.133 309.198 210.773 311.823 234.727C311.823 235.953 313.29 237.546 314.716 239.095C315.198 239.618 315.675 240.136 316.089 240.633C319.042 243.586 321.995 246.539 321.995 249.492C321.995 257.367 321.339 265.242 320.027 272.789C319.37 275.414 316.089 277.383 312.808 279.023C312.364 279.319 311.87 279.632 311.368 279.95L311.36 279.955L311.358 279.956C309.635 281.046 307.812 282.2 307.558 282.961ZM251.449 117.586L251.451 117.587C255.413 119.24 323.638 153.365 335.448 220.289C337.958 234.879 337.414 249.207 334.226 262.883C337.376 251.502 339.058 239.527 339.058 227.18C339.058 165.877 297.897 114.092 241.771 98.0205C234.258 107.016 226.009 112.898 217.844 116.656C223.414 130.562 230.12 147.57 230.12 148.758C230.12 150.727 223.886 166.805 223.23 167.461C222.573 167.789 215.027 168.445 212.073 168.445C208.792 176.32 205.511 183.867 204.855 184.852C203.87 186.164 200.917 187.148 194.683 188.789C194.016 188.989 193.282 189.203 192.529 189.421C189.578 190.28 186.346 191.219 185.823 191.742C184.183 193.711 175.323 217.008 169.417 233.414C170.312 233.265 171.194 233.154 172.058 233.075L187.136 196.007C187.136 196.007 202.558 188.461 214.042 188.461C234.714 188.132 265.229 162.867 251.449 117.586ZM114.621 135.633C116.917 131.367 114.949 128.414 112.98 126.773L112.324 126.117C108.386 124.148 83.7769 114.961 59.4956 106.43C80.8237 120.539 104.449 134.32 108.386 136.289C111.339 137.602 113.308 137.93 114.621 135.633Z" fill="white"/>
</g>
<defs>
<clipPath id="clip0">
<rect width="420" height="420" fill="white"/>
</clipPath>
</defs>
</svg>
